<svg width="56" height="54" viewBox="0 0 56 54" fill="none" xmlns="http://www.w3.org/2000/svg">
<path d="M53.5662 40.0576C53.3423 39.3164 52.2704 38.7937 52.2704 38.7937C52.169 38.7404 52.0784 38.6924 52.0037 38.6551C50.2172 37.7912 48.6334 36.7513 47.3002 35.5727C46.2282 34.6235 45.311 33.5782 44.5751 32.469C43.6738 31.1144 43.2525 29.9839 43.0712 29.3706C42.9699 28.9706 42.9859 28.8107 43.0712 28.6027C43.1405 28.4267 43.3485 28.2614 43.4445 28.1814C44.0471 27.7548 45.0177 27.1255 45.615 26.7415C46.1323 26.4056 46.5749 26.1176 46.8362 25.9363C47.6735 25.3496 48.2494 24.7524 48.5854 24.1071C49.0227 23.2752 49.076 22.3579 48.7347 21.4567C48.2761 20.2408 47.1402 19.5155 45.695 19.5155C45.375 19.5155 45.0444 19.5529 44.7137 19.6222C43.8871 19.8035 43.1032 20.0968 42.4473 20.3528C42.3993 20.3741 42.3459 20.3368 42.3513 20.2834C42.4206 18.6569 42.5006 16.4705 42.3193 14.396C42.1593 12.5188 41.77 10.935 41.1407 9.55378C40.5061 8.16724 39.6795 7.14333 39.0342 6.40207C38.421 5.69813 37.3384 4.65823 35.7066 3.72498C33.4134 2.4131 30.8003 1.7465 27.9419 1.7465C25.0889 1.7465 22.4811 2.4131 20.1827 3.72498C18.4548 4.71156 17.3509 5.82612 16.8496 6.40207C16.2044 7.14333 15.3778 8.16724 14.7432 9.55378C14.1086 10.935 13.7246 12.5135 13.5646 14.396C13.3833 16.4811 13.4579 18.4916 13.5326 20.2834C13.5326 20.3368 13.4846 20.3741 13.4313 20.3528C12.7753 20.0968 11.9914 19.8035 11.1648 19.6222C10.8395 19.5529 10.5089 19.5155 10.1836 19.5155C8.74372 19.5155 7.60782 20.2408 7.14387 21.4567C6.80257 22.3579 6.85589 23.2752 7.29319 24.1071C7.63449 24.7524 8.2051 25.3496 9.04236 25.9363C9.29834 26.1176 9.74629 26.4056 10.2636 26.7415C10.8449 27.1202 11.7888 27.7334 12.3967 28.1547C12.4714 28.208 12.7274 28.4 12.8073 28.6027C12.8927 28.816 12.9087 28.976 12.7967 29.4026C12.61 30.0212 12.1887 31.1411 11.3035 32.469C10.5676 33.5836 9.6503 34.6235 8.5784 35.5727C7.24519 36.7513 5.66134 37.7912 3.87484 38.6551C3.78951 38.6977 3.68819 38.7457 3.58153 38.8097C3.58153 38.8097 2.51496 39.3537 2.31231 40.0576C2.01368 41.0975 2.80827 42.0734 3.61353 42.5961C4.93607 43.4493 6.54659 43.9079 7.47984 44.1586C7.74115 44.2279 7.97579 44.2919 8.1891 44.3559C8.32243 44.3986 8.65839 44.5265 8.80238 44.7132C8.9837 44.9478 9.00503 45.2358 9.06902 45.5611C9.17035 46.1104 9.39966 46.7877 10.0769 47.257C10.8235 47.7689 11.7674 47.8062 12.9673 47.8542C14.2205 47.9022 15.7777 47.9609 17.5642 48.5528C18.3908 48.8248 19.1428 49.2888 20.0067 49.822C21.8198 50.9366 24.0756 52.3232 27.9259 52.3232C31.7816 52.3232 34.0534 50.9313 35.8772 49.8114C36.7411 49.2834 37.4824 48.8248 38.293 48.5582C40.0795 47.9662 41.6367 47.9076 42.8899 47.8596C44.0898 47.8116 45.0337 47.7796 45.7803 47.2623C46.5056 46.761 46.7135 46.0144 46.8095 45.4545C46.8629 45.1771 46.8949 44.9265 47.0548 44.7239C47.1935 44.5479 47.5028 44.4252 47.6468 44.3772C47.8654 44.3079 48.1107 44.2439 48.3827 44.1692C49.316 43.9186 50.4892 43.6253 51.9131 42.82C53.6302 41.8441 53.7476 40.6496 53.5662 40.0576Z" fill="white"/>
<path d="M55.0486 39.4817C54.67 38.4471 53.9447 37.8978 53.1235 37.4392C52.9688 37.3486 52.8248 37.2739 52.7075 37.2206C52.4622 37.0926 52.2116 36.9699 51.9609 36.8419C49.3958 35.4821 47.3907 33.7649 46.0041 31.7331C45.5348 31.0451 45.2095 30.4265 44.9802 29.9199C44.8629 29.5786 44.8682 29.3866 44.9536 29.2106C45.0176 29.0773 45.1882 28.9387 45.2842 28.8693C45.7268 28.576 46.1801 28.2827 46.4894 28.0854C47.0387 27.7281 47.476 27.4455 47.7533 27.2535C48.8092 26.5176 49.5451 25.7336 50.0038 24.859C50.6544 23.6272 50.7344 22.2193 50.2331 20.8967C49.5398 19.0623 47.8013 17.921 45.7002 17.921C45.2629 17.921 44.8202 17.969 44.3829 18.065C44.2656 18.0917 44.1536 18.1183 44.0416 18.145C44.063 16.8971 44.031 15.5639 43.919 14.2627C43.5244 9.67645 41.9192 7.27134 40.2447 5.35685C39.5461 4.55693 38.3302 3.38903 36.5063 2.3438C33.9626 0.882599 31.0828 0.146667 27.9418 0.146667C24.8114 0.146667 21.9317 0.882599 19.3879 2.33846C17.5534 3.3837 16.3375 4.55693 15.6443 5.35152C13.9698 7.26601 12.3646 9.67112 11.9699 14.2574C11.858 15.5586 11.8313 16.8918 11.8473 18.1397C11.7353 18.113 11.618 18.0863 11.506 18.0597C11.0687 17.9637 10.6207 17.9157 10.1888 17.9157C8.08764 17.9157 6.34913 19.0569 5.65587 20.8914C5.15458 22.214 5.23457 23.6218 5.88518 24.8537C6.3438 25.7283 7.08507 26.5122 8.13564 27.2482C8.41828 27.4455 8.85024 27.7281 9.39952 28.0801C9.69816 28.2721 10.1301 28.5547 10.5567 28.8373C10.6207 28.88 10.8501 29.0507 10.93 29.2106C11.0207 29.392 11.0207 29.5893 10.8874 29.9519C10.6634 30.4479 10.3381 31.0558 9.87948 31.7277C8.5196 33.7169 6.57311 35.4021 4.09334 36.7459C2.77613 37.4445 1.41093 37.9085 0.834979 39.4764C0.397686 40.6603 0.685659 42.0095 1.78956 43.1454C2.15219 43.5347 2.61081 43.8813 3.18676 44.2013C4.5413 44.9479 5.6932 45.3158 6.59978 45.5665C6.75976 45.6145 7.12773 45.7318 7.28771 45.8758C7.69301 46.2277 7.63435 46.761 8.17297 47.5396C8.49827 48.0249 8.87157 48.3555 9.18087 48.5689C10.3061 49.3474 11.5753 49.3954 12.9192 49.4488C14.1297 49.4968 15.5056 49.5501 17.0735 50.0674C17.7241 50.2807 18.4014 50.6967 19.1799 51.1766C21.0571 52.3338 23.6329 53.9124 27.9365 53.9124C32.2454 53.9124 34.8318 52.3232 36.725 51.1659C37.5036 50.6913 38.1755 50.2754 38.8048 50.0674C40.3727 49.5501 41.7485 49.4968 42.9591 49.4488C44.303 49.3954 45.5668 49.3474 46.6974 48.5689C47.0494 48.3235 47.4973 47.9236 47.8493 47.3156C48.2333 46.6597 48.2279 46.1957 48.5906 45.8811C48.7399 45.7531 49.0652 45.6411 49.2412 45.5878C50.1531 45.3372 51.321 44.9692 52.7022 44.2066C53.3155 43.8706 53.7901 43.5027 54.1687 43.0814C54.174 43.076 54.1794 43.0707 54.1847 43.0654C55.2139 41.9455 55.4753 40.6389 55.0486 39.4817ZM51.225 41.5348C48.8892 42.8254 47.3373 42.6867 46.1321 43.46C45.1082 44.1213 45.7108 45.5451 44.9696 46.0571C44.0523 46.6917 41.3486 46.0144 37.8556 47.1663C34.9758 48.1209 33.136 50.8566 27.9471 50.8566C22.7476 50.8566 20.9611 48.1316 18.0387 47.1663C14.5457 46.0144 11.8366 46.6917 10.9247 46.0571C10.1834 45.5451 10.7861 44.1213 9.76215 43.46C8.55693 42.6814 7.00507 42.82 4.66929 41.5348C3.18143 40.7136 4.02402 40.207 4.51997 39.967C12.9779 35.8767 14.3217 29.5519 14.3857 29.0773C14.4604 28.512 14.5404 28.0641 13.9164 27.4828C13.3138 26.9229 10.6314 25.2643 9.89014 24.7471C8.65825 23.8885 8.11964 23.0299 8.5196 21.974C8.79691 21.2434 9.47951 20.9714 10.1994 20.9714C10.4234 20.9714 10.6527 20.9981 10.8714 21.0461C12.2206 21.3394 13.5325 22.0166 14.2897 22.198C14.3964 22.2246 14.487 22.2353 14.567 22.2353C14.9723 22.2353 15.111 22.0326 15.0843 21.5687C14.999 20.0915 14.7857 17.2118 15.0203 14.5187C15.3403 10.8177 16.5349 8.98318 17.9534 7.35667C18.636 6.57807 21.8357 3.19705 27.9525 3.19705C34.0852 3.19705 37.2689 6.57807 37.9515 7.35667C39.3701 8.97785 40.5646 10.8123 40.8846 14.5187C41.1193 17.2118 40.9166 20.0915 40.8206 21.5687C40.7886 22.054 40.9379 22.2353 41.3379 22.2353C41.4179 22.2353 41.5139 22.2246 41.6152 22.198C42.3725 22.0166 43.6843 21.3394 45.0336 21.0461C45.2522 20.9981 45.4815 20.9714 45.7055 20.9714C46.4254 20.9714 47.108 21.2487 47.3853 21.974C47.7853 23.0299 47.2414 23.8885 46.0148 24.7471C45.2735 25.2643 42.5911 26.9229 41.9885 27.4828C41.3646 28.0588 41.4446 28.5067 41.5192 29.0773C41.5779 29.5519 42.9271 35.8767 51.385 39.967C51.8649 40.207 52.7128 40.7136 51.225 41.5348Z" fill="black"/>
</svg>
